PathFileType	4	(X/Y/Z)	28_2_43_p0_0-306.trc
DataRate	CameraRate	NumFrames	NumMarkers	Units	OrigDataRate	OrigDataStartFrame	OrigNumFrames
60.0	60.0	6	27	m	60.0	115	307
Frame#	Time	RHip			RKnee			RAnkle			RBigToe			RSmallToe			RHeel			LHip			LKnee			LAnkle			LBigToe			LSmallToe			LHeel			Neck			Head			Nose			RShoulder			RElbow			RWrist			RThumb			RIndex			RPinky			LShoulder			LElbow			LWrist			LThumb			LIndex			LPinky			
		X1	Y1	Z1	X2	Y2	Z2	X3	Y3	Z3	X4	Y4	Z4	X5	Y5	Z5	X6	Y6	Z6	X7	Y7	Z7	X8	Y8	Z8	X9	Y9	Z9	X10	Y10	Z10	X11	Y11	Z11	X12	Y12	Z12	X13	Y13	Z13	X14	Y14	Z14	X15	Y15	Z15	X16	Y16	Z16	X17	Y17	Z17	X18	Y18	Z18	X19	Y19	Z19	X20	Y20	Z20	X21	Y21	Z21	X22	Y22	Z22	X23	Y23	Z23	X24	Y24	Z24	X25	Y25	Z25	X26	Y26	Z26	X27	Y27	Z27	
115	1.9166666666666667	0.2364246872461613	0.69031781140565	1.041581223972892	0.22800348330189724	0.8961830608237491	1.3970371851918892	0.20964786233782196	1.0358706778248385	1.7441323419253745	0.1798933385475745	0.9202079850812596	1.8236116497406565	0.23898514966949988	0.9143865883980892	1.8068242206735425	0.19506636740238806	1.1399909984374814	1.7816035670669554	0.038125211867118564	0.6964395494817864	1.0526160374755735	0.04404602852103876	0.8541690307340859	1.3995857932912372	0.04719228543019951	1.0660067945260694	1.7546416449975692	0.03028827835876186	0.9046913386649511	1.8148120150356108	-0.025835845141869613	0.9490613766460423	1.8090810235157002	0.057886290575940455	1.1377491074150086	1.7850265942551076	0.08138190738126458	0.4816753770945698	0.5201572507283393	0.048822491847749276	0.3340177956578916	0.32474722136967216	0.054923973185309956	0.33279223222141785	0.44112783872796424	0.2258951954091822	0.49003505641013084	0.5758023910671513	0.30941225162199376	0.5562309783878365	0.8157129646516238	0.30218988464935237	0.5722013148786543	1.0446552169642402	0.25038326407079425	0.6374862598299986	1.149135467150461	0.2733938101529453	0.592428932620368	1.1563996618415202	0.3098315783156394	0.6058449210246123	1.1463818779435178	-0.0661108982070706	0.5503035875601853	0.6152329457099674	-0.06302413776732117	0.6043403036281111	0.8394224889846776	-0.040839807078699705	0.5977812837286555	1.0698717281886059	-0.024896883104112536	0.5769425983599571	1.1624242265949087	-0.029735315421178268	0.5785487515691633	1.2023507230038262	-0.04037490121883303	0.6066215040829823	1.172388158483947
116	1.9333333333333333	0.23677473856254258	0.6905984637866115	1.045519412060609	0.22814966665195566	0.895651497954541	1.3970143914577515	0.21415397708728864	1.0525546746740793	1.7469751138433902	0.18002730488555538	0.9197470504209405	1.8232313540259202	0.23899899803499525	0.9140633088885928	1.8067014763030085	0.19942884658881885	1.1574695742774075	1.7846232439910357	0.03802441724290544	0.6963431445672721	1.052699082113941	0.04414744064897101	0.8538326881959554	1.3996585072331753	0.0471854617735769	1.0661063874998074	1.7546975010148322	0.030292581803674126	0.9045708689940334	1.8146823866296868	-0.025818864992397283	0.9488981973455609	1.808988826838109	0.06162391872304536	1.155052355889492	1.788293396806014	0.08141627986132753	0.4816414758208967	0.520145840486015	0.04865886412423028	0.33223394338389595	0.3221353062752719	0.05502702863626303	0.3326811232835794	0.4411135750079233	0.22590077415291862	0.48996647893321055	0.5758547832829496	0.3094101340731024	0.5562948360860861	0.8157166832170333	0.3020359618571707	0.5720952532147167	1.044820425905956	0.2503001572199996	0.6377193213677324	1.1490418327158802	0.2778893377714628	0.6045537611068186	1.1564459194861536	0.30974623284792036	0.605897169721432	1.1465920239634544	-0.06614095501595113	0.549904787743978	0.6152289739118143	-0.06387304014187144	0.6042323808028389	0.8314003883509403	-0.03648251502292086	0.5840137330160027	1.065166203022287	-0.021660785829193605	0.5876407098360146	1.150505858152026	-0.026525042410029523	0.5880396337230429	1.191384128152644	-0.04413440446576437	0.6034939125464668	1.1613853398689713
117	1.95	0.23673396690167653	0.6904940667304269	1.0454033652957426	0.22278853758957576	0.8975801796824875	1.4012694028525678	0.21417061236454657	1.052680782675891	1.7469896204733013	0.1799018778478489	0.919835202736561	1.823408119163821	0.2388028491843746	0.9135459925970659	1.806723100651666	0.19939961981921928	1.157576601021576	1.7847605252972476	0.03784976778163078	0.6962109574881723	1.0527199410541006	0.04401859936163843	0.8542146492716967	1.3997319897904619	0.04726402760994667	1.066343705324731	1.7546837688698766	0.03033372786893012	0.904605770499752	1.814893723684635	-0.021334838917628742	0.9501787174812071	1.8091705090720753	0.05761568882342041	1.1378440039844964	1.7852985792887957	0.08140624208728502	0.4817551539927115	0.5201701536764634	0.056345630676476285	0.34442841225552345	0.318238036704634	0.05527955211926597	0.3328297494396658	0.44094341879563537	0.2258919555395636	0.48997708292202563	0.5759012938628227	0.3094316356926991	0.5563802571162593	0.8158399012303852	0.30222736955424967	0.5723929479269352	1.048449528553473	0.2501937903631984	0.6374433217986222	1.1490372598491359	0.27801965583670707	0.6046080122913621	1.1599446568675364	0.30968474764415344	0.605709057756474	1.1467785608906806	-0.06621040032739271	0.550212402144313	0.6151507094670088	-0.06068638539073091	0.6174740667725201	0.8298620043511266	-0.03711428216763018	0.5813355548066044	1.0614170487804209	-0.02100913969294037	0.5878281343769105	1.154172705506229	-0.023140267258777936	0.5874483023107357	1.190909099954918	-0.03912737166166085	0.6048660630166789	1.1683349658316076
118	1.9666666666666666	0.23218570889305545	0.6878250571067406	1.0379963268577197	0.22339616715506294	0.8954934113196966	1.397119044496537	0.21412809826967383	1.052585001879385	1.7469588263343627	0.1799434136226792	0.9196505039850051	1.8233582945726394	0.2387244999783935	0.9135317767760908	1.806764216867819	0.19934098013139537	1.1575026454669244	1.7847342707436726	0.03809399058047636	0.6949049463698878	1.0489639108690587	0.044036110917539985	0.8538418658314424	1.3995686770529199	0.04739617500885336	1.066054098813337	1.75456995569914	0.026959038325636297	0.8895172932947057	1.8117047529592578	-0.02124559690833509	0.9496125346324605	1.8089469114928054	0.05749250097684516	1.1375859801374553	1.7853419262092292	0.084884228172644	0.46943883201029984	0.5224727373482994	0.060022377019310694	0.3552062120124495	0.3150258019609555	0.05914772352736152	0.3336871309628518	0.440430613993873	0.2258686792314027	0.49006593336516724	0.5757947493445018	0.30939298035934887	0.5562689894098148	0.8157558679343636	0.3021600570447502	0.5721481103796037	1.0484494359754666	0.25015733628004144	0.637778039272193	1.1489876179410343	0.27893212676672857	0.6067896940095985	1.1636583825198918	0.3097343857346443	0.6055970566771046	1.1466169105692001	-0.06325397668737262	0.5628489938897537	0.6127386289071592	-0.06026053858597914	0.6173003034194018	0.826090672285235	-0.03634416165540269	0.5800802002542392	1.0576536122437978	-0.016532736040061433	0.5818833754411507	1.1399224373800454	-0.023721546142209424	0.5844623756430651	1.1866639269914292	-0.0353077247730314	0.5914511323791991	1.163694426720873
119	1.9833333333333334	0.2325868176094034	0.6883263408784085	1.0419326277168164	0.22400232107846912	0.8935702703425337	1.3932111869945987	0.21417234552032827	1.052610582283719	1.747024701334105	0.1800156908401131	0.9199135990330249	1.823417327814402	0.23873237308983	0.9131485683076628	1.8067137151002874	0.1993780832438318	1.1575999410254363	1.7848707612765813	0.0381753351415214	0.6951951004812268	1.0487168414190589	0.04722822240798075	0.8353400189133238	1.3931276805802817	0.04752304713658997	1.0661472858368954	1.7545320925702426	0.026987310461117416	0.8894253005737679	1.8115816127201798	-0.021062988640405813	0.9494778423184362	1.808750277423936	0.061624414901631085	1.1552760655249796	1.7883945539376362	0.0849202921684301	0.46948655309652926	0.5224708943515121	0.060501556555932284	0.35693817520162435	0.31753022854345414	0.06297528476991292	0.3224559121622949	0.4429824044115369	0.22597699101912944	0.4900093345626585	0.5758194585625014	0.309743957531675	0.5568207782281089	0.8194906127518717	0.30209874171179485	0.5722131887596951	1.0485036881924616	0.24591979815850024	0.6253994729140359	1.1489505687372636	0.27346223146816057	0.5924236985368412	1.1598766513011933	0.3095929763414014	0.6055975472096758	1.1466490585209375	-0.06327943799642176	0.5629106647855292	0.612756609860842	-0.060244303497682276	0.617928067890115	0.8259875101015781	-0.036275908152632416	0.5798657907961872	1.0574961612076408	-0.016232365906431363	0.5810956382524055	1.1396976155597818	-0.024961510384726913	0.5808269430296837	1.1756094208983108	-0.03569767753129618	0.5911065726830411	1.1600038786528464
120	2.0	0.23259737016168172	0.6886142907562014	1.0421592659917915	0.2280683710847839	0.8947671064280207	1.3968182312858586	0.20966930325712538	1.0356326146263253	1.744149339021129	0.17635580895832553	0.9059594651280202	1.8202813347431994	0.24386128730347337	0.9147559196905047	1.8066327019014679	0.19940010461315139	1.1573201875307062	1.784547268055625	0.0382239511419979	0.6953054441870544	1.0487159954193297	0.042961170208141566	0.8510143127470782	1.3948684727830667	0.047446246707113005	1.0659168977824907	1.7545629530357831	0.02689567670004904	0.8891031856064788	1.8114447258376671	-0.02566314327726657	0.9484100680527798	1.8087714358510083	0.057601562153584716	1.1381936250394982	1.7854932667487702	0.0892965297231625	0.46936485708444897	0.5187593951606515	0.06378061710510786	0.34540460397106626	0.32075857804434665	0.06671883369558043	0.3226600549843984	0.44279185424935585	0.22622807145259607	0.4914745613038107	0.5825390689023844	0.3097785735928088	0.5569326620413768	0.8197150727065615	0.30210547684850153	0.5724376645904747	1.0485220066078988	0.25004697421374295	0.6378289809579544	1.148709037008688	0.2731767844403204	0.5924616132931164	1.1600148184102061	0.30953135528148645	0.6056613311225836	1.1466566212117084	-0.0630682786556022	0.5629456203396677	0.6126777152868653	-0.06536876196564483	0.6435855298015162	0.823777813518347	-0.03623545295987535	0.5796555513831573	1.0575932451678185	-0.015865900404272104	0.579686216449285	1.1370000582966175	-0.02476647871287159	0.5811079917208317	1.1793170898848089	-0.0354054651172322	0.5910192177116415	1.1636785278382722
